<?xml version="1.0" standalone="no"?>
<!DOCTYPE svg PUBLIC "-//W3C//DTD SVG 20010904//EN"
 "http://www.w3.org/TR/2001/REC-SVG-20010904/DTD/svg10.dtd">
<svg version="1.0" xmlns="http://www.w3.org/2000/svg"
 width="192.000000pt" height="192.000000pt" viewBox="0 0 192.000000 192.000000"
 preserveAspectRatio="xMidYMid meet">
<metadata>
Created by potrace 1.14, written by Peter Selinger 2001-2017
</metadata>
<g transform="translate(0.000000,192.000000) scale(0.100000,-0.100000)"
fill="#000000" stroke="none">
<path d="M766 1185 l-16 -25 55 0 55 0 0 -145 0 -146 47 -20 c44 -19 49 -19
94 -4 l48 16 3 147 3 147 57 5 57 5 -19 25 c-19 24 -20 24 -25 5 -6 -19 -15
-20 -166 -20 -116 0 -159 3 -159 12 0 23 -18 22 -34 -2z m204 -121 c0 -21 -33
-114 -41 -114 -12 0 -12 5 8 67 9 29 20 53 25 53 4 0 8 -3 8 -6z"/>
<path d="M477 793 c-5 -27 -2 -41 7 -32 11 10 17 59 8 59 -5 0 -12 -12 -15
-27z"/>
<path d="M530 790 c0 -16 5 -30 10 -30 6 0 10 11 10 25 0 14 5 25 10 25 6 0
10 -11 10 -25 0 -35 17 -31 22 5 4 28 3 30 -29 30 -30 0 -33 -3 -33 -30z"/>
<path d="M610 790 c0 -16 4 -30 9 -30 4 0 8 13 7 30 -1 39 -16 39 -16 0z"/>
<path d="M640 790 c0 -16 5 -30 10 -30 6 0 10 14 10 30 0 17 -4 30 -10 30 -5
0 -10 -13 -10 -30z"/>
<path d="M672 790 c0 -19 2 -27 5 -17 2 9 2 25 0 35 -3 9 -5 1 -5 -18z"/>
<path d="M690 791 c0 -27 3 -30 31 -29 23 1 33 7 40 25 11 30 11 33 -1 33 -5
0 -13 -12 -17 -27 l-7 -28 -6 25 c-3 14 -14 26 -23 28 -13 3 -17 -4 -17 -27z
m27 -13 c-3 -8 -6 -5 -6 6 -1 11 2 17 5 13 3 -3 4 -12 1 -19z"/>
<path d="M791 785 c1 -29 1 -29 9 -5 8 24 8 24 9 3 1 -33 21 -28 21 5 0 21 -5
28 -20 28 -16 0 -20 -7 -19 -31z"/>
<path d="M880 790 c0 -17 5 -30 13 -30 7 0 12 13 12 30 0 17 -5 30 -12 30 -8
0 -13 -13 -13 -30z"/>
<path d="M960 790 c0 -16 2 -30 4 -30 2 0 6 14 8 30 3 17 1 30 -4 30 -4 0 -8
-13 -8 -30z"/>
<path d="M990 790 c0 -18 5 -30 13 -30 9 0 14 12 15 30 0 20 -4 30 -14 30 -9
0 -14 -11 -14 -30z"/>
<path d="M1042 795 c-14 -31 -15 -35 -3 -35 9 0 25 49 18 56 -2 2 -9 -7 -15
-21z"/>
<path d="M1131 795 c-1 -24 3 -31 18 -32 14 -1 18 3 14 13 -3 8 -9 14 -13 14
-5 0 -11 8 -13 18 -3 9 -5 3 -6 -13z"/>
<path d="M1180 790 c0 -17 5 -30 13 -30 7 0 12 13 12 30 0 17 -5 30 -12 30 -8
0 -13 -13 -13 -30z"/>
<path d="M1220 790 c0 -20 5 -30 15 -30 10 0 15 10 15 30 0 20 -5 30 -15 30
-10 0 -15 -10 -15 -30z"/>
<path d="M1301 808 c2 -36 15 -43 81 -45 56 -1 67 1 71 17 8 29 -5 37 -61 37
-37 1 -55 -3 -59 -13 -3 -8 -9 -11 -14 -8 -5 3 -7 10 -4 15 4 5 1 9 -4 9 -6 0
-11 -6 -10 -12z m136 -20 c-3 -8 -6 -5 -6 6 -1 11 2 17 5 13 3 -3 4 -12 1 -19z"/>
<path d="M841 793 c-1 -12 4 -25 9 -28 12 -7 12 2 0 30 -8 19 -9 19 -9 -2z"/>
<path d="M1091 788 c-1 -16 4 -28 9 -28 12 0 12 8 0 35 -8 18 -9 17 -9 -7z"/>
</g>
</svg>
